<?xml version="1.0" standalone="no"?><!DOCTYPE svg PUBLIC "-//W3C//DTD SVG 1.1//EN" "http://www.w3.org/Graphics/SVG/1.1/DTD/svg11.dtd"><svg class="icon" height="512" viewBox="0 0 1492 1024" version="1.1" xmlns="http://www.w3.org/2000/svg"><path d="M905.132117 206.860245c25.24999 11.824819-6.83113 39.4457-8.861206 53.211686-29.47314-6.030954-62.858249-8.090666-70.978551-35.489275 29.310141 19.470943 71.778727 23.63482 79.839757-17.722411zM967.219826 366.569394c-24.301633 11.158006-15.929424 55.019491-44.335662 62.058074 1.674442-33.785198 12.595359-58.368374 44.335662-62.058074zM1331.03306 402.043852c16.403603-21.560291 5.942046 58.472101 8.846387 79.88421-31.992211-5.704957 2.415345-42.587131-8.846387-79.88421zM958.373439 561.753001c16.210968 2.267165 35.474457 73.482805 0 70.963733 13.573351-28.213604 3.126613-39.045612 0-70.963733z" fill="#88b3e2" /><path d="M1419.704385 819.053953c-37.563805 2.104166-62.769341-8.20921-88.656507-17.752047-71.704637-1.185446-120.856172 82.255102-195.228061 115.34385-43.28358 19.233854-116.292207 16.018333-177.446378 35.489276-170.52634 54.234133-484.032228 153.218835-594.412025-53.241322-120.02636-5.260415-230.139432-15.692335-292.805046-79.839757-86.418979-88.508327-88.908415-272.341293-35.489276-390.426485 10.298558-22.805008 63.243519-98.214162 97.591804-150.818308 30.021408-45.995287 68.444661-50.529616 115.34385-88.71578 55.612213-45.387746 54.634221-50.529616 133.051443-79.869392 74.297799-27.739425 134.785157-68.741023 195.183606-88.686144 166.155009 7.023765 307.060029-55.567759 470.266242 8.861205 21.841834 8.638934 33.059112 37.623078 62.072892 53.241323 85.174261 45.832288 142.964731 63.836242 212.965289 150.833125 19.900667 24.79063 31.473579 61.954347 53.196868 88.71578 21.560291 26.465071 51.80397 43.994847 62.117346 62.117346 60.665175 106.645644 91.175579 340.400684-17.752047 434.74733zM736.57658 233.473497c8.20921-45.936014 50.737069-66.251587 35.474458-88.700962 67.214762-3.511882 106.690098-46.795462 168.570354-8.890841 35.14846-37.000719 6.075408-126.531492-70.978551-106.482645 6.490314 20.715661 24.286815 75.705515-17.707592 70.993369V47.165914c-54.9454-47.373367-134.903701-14.388345-168.585173 53.226504-6.83113 13.721532 5.67532 42.51304 0 62.072892-16.077605 55.40476-66.666493 110.394615-70.963733 141.97192-11.143188 82.062467 26.450253 155.367455 53.211686 204.05963-66.429404-28.154331-47.299277-141.942284-79.839756-204.05963 27.813516-58.916643 83.810999-133.747892 70.978551-204.05963-102.718855-8.105484-88.508327 100.777688-168.555537 115.34385 5.956864 44.394935-8.238846 68.652114-8.920477 106.453009 36.733993-1.704078 24.642449-52.292966 44.380117-70.963733 7.394216 96.361904-6.75704 317.491949 97.591803 337.111073 49.092263 9.276111 167.977632-27.78388 177.461196-106.423373-59.316731-64.977233-90.256859-205.482165-97.636257-292.819864 5.023325 21.634381 7.631306 45.654471 35.518911 44.394935zM488.166469 91.531213c-11.602548 26.850341-3.76379 73.156807-26.62807 88.700962-37.059991-4.519511-60.146543 4.964053-79.88421 17.752047-5.734593 61.924711 22.390102 89.975316 53.241322 115.34385 36.348724-18.922674 36.852538-50.366617 26.642888-97.591804 52.781962-38.897431 94.213284-89.145504 141.927466-133.095896 35.770819-9.735471 68.429843 28.895235 79.869393-8.876024-53.730319-66.962854-135.540878 8.683389-195.168789 17.766865z m496.820222 70.948915c15.262611-23.17546 14.743979-62.1618 53.226505-62.072892 28.24324 10.506011 77.58741 46.217558 115.329032 17.766865-56.63466-0.874266-102.422494-69.83756-186.307584-70.993369 5.201142 24.909174-9.483564 97.38435 17.752047 115.299396zM408.297077 135.881694c-80.65475-3.808244-122.026799 31.755122-150.833126 79.869393-30.658585-1.466989-73.319806 56.1753-17.752047 62.072891 34.926189-80.388025 123.716059-107.016095 221.841313-124.205055-14.269801-29.221232 30.85122-62.784159-8.905659-62.08771-20.315573 9.231657-24.657267 34.481647-44.350481 44.350481z m408.104442 576.674796c143.809361 94.450373 210.727761-89.056595 283.94384-150.803489-11.810001-47.358549-47.210368-71.126732-88.730598-88.745416 69.185565-1.185446 87.826696 48.247633 106.453009 97.606621 65.6885-14.210528 60.01318-99.710787 79.884211-159.679513 12.239725 80.254662-25.768622 110.320525-35.489276 168.585173 111.743059-4.119423 119.507728-127.139033 124.190238-212.935654 16.611055 48.04018 4.326876 99.399608 0 150.80349 39.090066-23.294005 52.204058 13.840077 97.591803 8.905659-28.939689-107.13464-9.987379-262.102007-133.051443-275.052999-49.684986 58.146103 26.079802 137.407955-8.890841 204.05963-4.919599-93.116746-57.108838-183.921874 17.752046-239.548905-11.454367-12.239725-38.571434-8.801933-62.102527-8.890842-19.1894 28.109877-18.981947 75.631425-44.394935 97.591803 13.27699 1.526261 32.777569-3.156249 35.504093 8.890842-34.318648-7.720214-31.547669 21.649199-53.241322 26.598434-5.749411 41.59432 11.617366 106.275192-8.831569 133.066261-29.102688-101.637136 14.862523-170.956064 35.474457-248.424929-0.755722-26.390981-63.021248-36.808084-44.394935-53.211687 32.15521 20.789751 59.138914 30.806766 97.636258 8.861206-24.894356-37.815712-169.563165-60.620721-195.213243-26.613252 18.448496 23.205096 91.560849 38.186164 79.869392 62.117345-30.92531-13.499261-55.063945-33.681471-97.606621-35.504093-81.143747 39.801334 5.438231 100.599871 26.598434 141.957102-15.721971-7.927667-11.321005-36.007908-44.350481-26.613252-69.022566 55.701122-184.277508 110.750249-159.679513 230.6877 119.789271-51.848424 302.392337-137.28941 204.044812-301.681069 44.617206 26.420617 43.505851 98.480887 62.117346 150.833125-70.015377 6.875584-81.380836 72.415904-115.329032 115.343851 11.647002 38.60107 69.882014 30.658585 88.730598 62.102527-68.133482-6.268043-109.446259-75.112792-186.322401-44.350481-2.000439 6.875584-0.281543 17.485322-8.90566 17.752047-10.772736 55.345488 49.877621 85.841074 26.642888 124.205056-13.232536-51.87806-34.703918-95.458001-88.730597-106.482645-22.25674 7.320126-28.065423 31.073491-44.350481 44.335663-75.186883-18.226225-149.692134 31.029037-186.33722 79.869392-151.366576-6.416224-185.922313 103.919119-186.337219 248.454565 74.20889 72.786356 238.852456 55.938211 328.264685 8.861206-9.157567 52.930143-108.186723 16.033151-115.34385 70.993369 77.705955-16.670328 202.992729-5.956864 275.067818-53.256141-46.914007-60.650357-133.095897-107.623636-212.950472-44.35048 15.558973-52.485601 112.113511-23.916364 115.34385-88.730598 8.224028 117.907376 266.339975 160.375962 283.929023 44.380117 23.516276-2.845069-8.327755 49.699804 26.598434 35.504093 125.731317 3.111795 154.671006-281.202498 53.241322-301.695887-63.273155-12.728721-118.589007 56.264208-133.081079 124.219873 23.708911 5.156688 55.434397-26.227982 70.978552 0-84.062906-8.757479-180.839716 50.514798-97.606622 106.512281 71.200822 16.566601 134.977792-54.219315 177.476014-8.905659-46.380556-19.841395-99.488516 22.686464-150.847944 26.62807-3.422974 23.145824-4.549147 48.647721-17.737228 62.102528 13.084355-84.062906-63.85106-78.135679-70.978551-141.971921-212.105842-73.171625-321.5521 93.842832-461.345765 115.34385 19.011583-10.580101 49.581259-9.572473 62.08771-26.613252-0.133363-26.47989-23.056916-30.154771-26.613252-53.241322 19.485761 10.076287 29.458321 29.695411 53.211686 35.489275 77.409593-52.204058 202.637095-95.650636 177.490832-221.796858 10.594919 24.849902 9.720653 61.228262 8.861205 97.606621 18.522586 5.112234 25.32408 21.975197 53.211687 17.752047 12.81763-31.562487 26.064984-79.602667 26.613252-97.606621 23.294005 25.887167-7.883213 51.10752-0.014818 88.686143z m62.132164-372.629984c25.042537-22.227104 56.234572-38.378799 88.686143-53.211686-16.522147-33.503654-23.056916-73.467987-8.861205-115.343851C789.521541 59.257458 654.365933 348.417259 807.540313 437.518309c71.037823-30.46595 19.070855-105.312017 8.861206-133.066261 11.321005 21.219475 28.954507 36.141271 62.132164 35.474458z m-603.332503-70.963733c34.644646 0.814994 35.14846 35.859727 53.241322 53.226504 27.517154 0.903902 25.32408-27.902424 62.102528-17.737229 1.348444-42.764948-38.186164-44.632024-26.598434-97.591803-53.596956-3.319247-72.341813 28.213604-88.745416 62.102528zM53.404321 473.007585c91.70903-26.568798 102.111314-134.488795 168.585173-186.277947-27.324519 6.594041-17.040779-24.390542-44.380117-17.752047-30.628949 78.743219-87.515516 131.302911-124.205056 204.029994z m97.591803-17.707593c6.44586-38.171346 80.328753-55.419579 106.467827-44.365299-23.17546 36.630267 12.521268 78.832128 62.117346 70.993369 1.955985-6.949674 7.379398-10.343012 17.707593-8.920477 25.753804-29.176778-18.018772-78.921036 17.752046-88.686144-7.735032 58.012741 16.359148 84.181451 26.613253 124.205055-15.766426-7.883213-22.538283-24.775812-53.226505-17.752046 0.874266 61.24308 46.039741 78.150497 97.591803 88.745416 19.974757-80.625114 39.653153-161.487317 70.99337-230.687701-9.957742-1.881895-13.825258-9.868834-17.766865-17.766864-63.584335-13.306626-46.928825 53.64141-79.824939 70.993369 1.333626-28.213604 20.10812-39.015976 17.737229-70.993369-69.289291-34.511283-96.00627 44.335663-115.358668 88.730597-4.667692-37.193354 15.514518-49.521987 17.766865-79.854574-45.491472-122.575068-180.261811 47.373367-168.570355 115.358668z m1224.342962 328.249867c75.3647 5.378959 87.604425-89.753045 88.745416-141.97192 2.030075-93.502016-47.951272-218.951789-79.869392-266.162158 4.208332 169.978071 63.347246 264.680351-8.876024 408.134078zM461.538399 632.716734c39.623517 25.724168 145.869073 32.970204 133.066261-44.380117-26.405799-33.251747-36.83772 51.863242-53.25614 26.642888 20.49339-72.223269-16.433239-159.93142-35.489276-221.811677-42.690857 52.767144-57.627471 157.486439-44.320845 239.548906zM133.258896 517.372884c33.07393 28.658146 36.096816-29.54723 70.963733-26.613252-7.320126 22.197468-24.286815 34.837281-26.613252 62.102527 35.281823 86.018891 213.157924 76.639054 283.929022 97.606622-47.640092-64.740144-141.008746-83.781363-177.476014-159.709149-16.047969 16.462875-1.511443 63.569517-26.613252 70.993369 47.980908-115.951391-111.076246-168.748171-124.190237-44.380117z m-70.99337 115.34385c19.900667-55.834484 14.566162-123.849422 70.99337-159.709149-80.58066-12.624995-149.603226 125.212684-70.99337 159.709149z m159.723968-8.846387c-74.327435 3.334066-34.437193-107.534728-115.358669-97.591804-17.485322 18.507768-6.771858 58.916643 0 79.839757-9.631745 25.857531-36.259815 34.718736-62.102527 44.365299-16.329512 99.770059 109.712984 201.718375 195.183606 115.314214-1.2299-40.171785-16.670328-66.088588-26.62807-97.591804-16.107241 32.303391-104.037663 53.078324-133.051443 17.752047 57.849742 19.500579 128.946838-8.846387 141.957103-62.087709z m1179.992481 26.598434c3.37852-121.241442-146.506249-157.842072-195.213243-35.504094 56.516116-36.244997 105.267563 16.981507 150.862762-26.642888-45.906378 26.331709-48.9589 149.706952-8.890842 186.352037 4.060151-61.287534 51.700243-69.096656 53.241323-124.205055z m-204.044812 177.431559c85.455805-2.237528 40.349602-83.040459 62.102527-141.942284-2.578344 52.826416 6.179135 94.376282 62.102528 88.730598-15.292247-37.993529-21.752925-84.729719-17.781683-141.97192-139.28985-56.442025-67.37776 136.592961-106.423372 195.183606zM239.711904 659.344804c-0.53345 50.796341 25.383352 75.186883 17.752047 133.066261 44.143028 14.951432 63.658425 14.906978 115.34385 8.890841 14.269801-21.249111 29.176778-41.786955 26.62807-79.839756-33.014658 6.06059-85.515077 18.507768-97.621439-17.752047 35.015097 13.884531 129.169109 19.204218 141.97192-17.752047-60.487358-12.654631-147.128608-93.131564-204.074448-26.613252zM124.412508 819.053953c38.749251 20.330391 75.735151 42.51304 141.942285 35.489276 14.877341-99.103246-103.193033-16.34433-141.942285-35.489276z m159.664695 8.846387c-12.328634 65.051323 108.305267 57.538562 88.730598-8.846387-35.474457-2.963614-49.240444 15.781244-88.730598 8.846387z" fill="#88b3e2" /><path d="M1153.542228 659.344804c14.743979 9.572473-22.197468 42.275951-8.846388 79.854575-22.197468-1.511443-27.78388 13.617806-35.504093 26.598434-9.43911-24.568359 39.786516-66.488676 44.350481-106.453009zM567.991408 685.958056c1.911531 23.308823 48.543994 81.247473 17.752047 79.839757-1.452171-30.406678-35.844909-57.286655-17.752047-79.839757z" fill="#88b3e2" /></svg>